<svg width="701" height="1145" viewBox="0 0 701 1145" fill="none" xmlns="http://www.w3.org/2000/svg">
<path d="M-347.185 811.563C-435.87 693.724 -510.398 586.601 -507.255 479.24C-504.967 372.613 -426.637 265.671 -327.777 188.307C-228.877 110.17 -109.447 61.61 4.64067 68.4878C117.873 76.0991 227.394 139.224 354.385 227.916C480.6 315.798 625.915 429.322 654.518 570.651C683.08 712.751 595.704 883.465 458.498 990.749C322.108 1098.07 135.073 1141.93 -9.90559 1100.35C-155.659 1057.96 -258.54 930.174 -347.185 811.563Z" fill="#C1E7C5"/>
<path d="M60.4938 974.71C-43.7119 937.52 -109.835 827.444 -186.59 733.039C-263.271 637.853 -350.133 557.98 -351.983 476.344C-353.007 394.774 -268.643 311.864 -178.603 261.3C-87.7363 210.804 9.18262 193.078 102.839 201.069C196.495 209.06 287.715 242.834 348.289 306.009C408.938 368.403 439.391 459.839 450.965 570.608C462.465 682.158 454.783 811.835 380.848 894.41C306.088 976.918 164.7 1011.9 60.4938 974.71Z" fill="#CEE9CF"/>
<path d="M-4.76168 795.612C62.8161 827.974 149.584 842.63 215.947 813.492C282.31 784.353 328.773 711.572 352.485 634.347C376.369 557.438 377.502 476.087 345.262 406.612C312.516 336.985 245.891 279.083 175.494 270.384C105.268 262 31.0983 302.503 -44.9521 339.544C-120.667 376.422 -198.093 410.153 -218.822 463.236C-239.551 516.319 -203.919 588.919 -161.991 650.491C-120.064 712.063 -72.1754 762.772 -4.76168 795.612Z" fill="#E1F1E1"/>
</svg>
