<?xml version="1.0" encoding="utf-8"?>
<!-- Generator: Adobe Illustrator 25.0.0, SVG Export Plug-In . SVG Version: 6.00 Build 0)  -->
<svg version="1.1" id="圖層_1" xmlns="http://www.w3.org/2000/svg" xmlns:xlink="http://www.w3.org/1999/xlink" x="0px" y="0px"
	 viewBox="0 0 534.7 248.5" style="enable-background:new 0 0 534.7 248.5;" xml:space="preserve">
<style type="text/css">
	.st0{clip-path:url(#SVGID_2_);fill:url(#SVGID_3_);}
</style>
<g>
	<defs>
		<rect id="SVGID_1_" width="534.7" height="248.5"/>
	</defs>
	<clipPath id="SVGID_2_">
		<use xlink:href="#SVGID_1_"  style="overflow:visible;"/>
	</clipPath>
	
		<linearGradient id="SVGID_3_" gradientUnits="userSpaceOnUse" x1="327.4699" y1="189.4341" x2="452.7289" y2="25.6701" gradientTransform="matrix(1 0 0 -1 0 183.0553)">
		<stop  offset="0" style="stop-color:#3EA943"/>
		<stop  offset="1" style="stop-color:#86C789"/>
	</linearGradient>
	<path class="st0" d="M-255.3,340l37.4,5.5c37.4,5.5,112.2,16.5,172.1-23.7c59.2-40.4,103.8-131,165.8-161
		c62.9-30.3,144.5,1.6,209.6-18.2c65.9-19.4,115.8-90.8,182-110.3C577,12.4,658.3,44.4,738,70.3c79.1,26.7,157.1,47.2,213.2-2.7
		c56.7-50.7,91.6-171.8,109.7-233.3l17.3-60.8L1170,80.1l-32.9,9.8c-32.9,9.8-98.4,29.5-164.5,49.3
		c-65.4,19.6-131.2,39.3-196.4,58.8c-66.1,19.8-132.2,39.6-197.3,59.1c-65.8,19.7-131.2,39.3-197.3,59.1
		c-65.5,19.6-131.2,39.3-197.3,59.1C119,394.9,53,414.6-12.1,434.2c-66,19.8-131.2,39.3-164.8,49.4l-32.6,9.8L-255.3,340z"/>
</g>
</svg>
